<svg width="52" height="22" viewBox="0 0 52 22" fill="none" xmlns="http://www.w3.org/2000/svg">
<path d="M9.50139 2.83634C8.89202 3.57935 7.91681 4.1656 6.94171 4.08178C6.81984 3.07714 7.29718 2.00949 7.85588 1.35009C8.46525 0.586146 9.53186 0.0418601 10.3952 0C10.4968 1.04661 10.1007 2.07228 9.50149 2.83634H9.50139ZM10.3851 4.28072C8.97317 4.197 7.76447 5.10746 7.09406 5.10746C6.41359 5.10746 5.3876 4.32258 4.27032 4.34351C2.81787 4.36444 1.46689 5.21211 0.725379 6.56231C-0.798261 9.2626 0.329285 13.2608 1.80204 15.4586C2.52324 16.5471 3.38662 17.7402 4.52422 17.6984C5.60099 17.6565 6.02755 16.9763 7.32775 16.9763C8.63801 16.9763 9.01389 17.6984 10.1515 17.6774C11.3297 17.6565 12.0712 16.5891 12.7924 15.5005C13.6151 14.2655 13.9503 13.0618 13.9706 12.999C13.9503 12.9781 11.6954 12.0886 11.6751 9.40911C11.6548 7.16938 13.4527 6.10184 13.5339 6.03905C12.5181 4.49002 10.9336 4.32258 10.3851 4.28072ZM18.5416 1.24544V17.5624H20.9996V11.9839H24.4023C27.5104 11.9839 29.6943 9.78606 29.6943 6.60427C29.6943 3.42259 27.5511 1.24555 24.4836 1.24555H18.5415L18.5416 1.24544ZM20.9996 3.38062H23.8335C25.9666 3.38062 27.1854 4.55281 27.1854 6.61463C27.1854 8.67645 25.9666 9.85921 23.8233 9.85921H20.9996V3.38062ZM34.1839 17.6879C35.7279 17.6879 37.16 16.8821 37.8101 15.6051H37.8609V17.5623H40.1362V9.4405C40.1362 7.08566 38.3079 5.56802 35.4942 5.56802C32.8837 5.56802 30.9538 7.10659 30.8827 9.22074H33.0971C33.2799 8.21599 34.1838 7.55659 35.4231 7.55659C36.9264 7.55659 37.7695 8.27878 37.7695 9.60805V10.508L34.7019 10.6964C31.8477 10.8743 30.3038 12.078 30.3038 14.1713C30.3038 16.2855 31.8985 17.6879 34.1839 17.6879ZM34.8441 15.7516C33.5339 15.7516 32.7009 15.1028 32.7009 14.1084C32.7009 13.0829 33.5033 12.4862 35.0371 12.3921L37.7695 12.2142V13.1351C37.7695 14.6632 36.51 15.7516 34.8442 15.7516H34.8441ZM43.1732 22C45.5704 22 46.6978 21.0581 47.6831 18.2008L52 5.725H49.5013L46.6064 15.3643H46.5556L43.6608 5.725H41.091L45.2554 17.6042L45.032 18.3264C44.6562 19.5509 44.0467 20.0219 42.9599 20.0219C42.767 20.0219 42.3912 20.001 42.2387 19.98V21.9372C42.3809 21.9791 42.9903 22 43.1732 22Z" fill="#252527"/>
</svg>
