<svg width="63" height="18" viewBox="0 0 63 18" fill="none" xmlns="http://www.w3.org/2000/svg">
<path d="M0.43821 14H5.45597C8.49858 14 9.87287 12.4851 9.87287 10.478C9.87287 8.4517 8.45384 7.30753 7.15625 7.23722V7.10938C8.35795 6.80256 9.36151 5.98438 9.36151 4.34801C9.36151 2.41122 8.01918 0.909091 5.23224 0.909091H0.43821V14ZM2.41335 12.3061V8.11293H5.33452C6.91974 8.11293 7.91051 9.13565 7.91051 10.3821C7.91051 11.4815 7.16264 12.3061 5.2642 12.3061H2.41335ZM2.41335 6.57244V2.5902H5.1108C6.67685 2.5902 7.42472 3.41477 7.42472 4.50142C7.42472 5.76705 6.3892 6.57244 5.05966 6.57244H2.41335ZM13.2702 17.6818C14.8491 17.6818 15.8462 16.8572 16.4151 15.3104L20.4741 4.20099L18.4094 4.18182L15.9229 11.8011H15.8207L13.3342 4.18182H11.2887L14.881 14.1278L14.6445 14.7798C14.1587 16.0838 13.4748 16.1925 12.4265 15.9048L11.9663 17.4709C12.1964 17.5732 12.695 17.6818 13.2702 17.6818ZM31.1744 14.1982C33.4947 14.1982 34.9968 12.8047 35.2077 10.8935H33.3477C33.1048 11.9545 32.2802 12.581 31.1871 12.581C29.57 12.581 28.5281 11.2322 28.5281 9.09091C28.5281 6.98793 29.5891 5.66477 31.1871 5.66477C32.4016 5.66477 33.1431 6.43182 33.3477 7.35227H35.2077C35.0032 5.37074 33.386 4.05398 31.1552 4.05398C28.3874 4.05398 26.5977 6.13778 26.5977 9.13565C26.5977 12.0952 28.3235 14.1982 31.1744 14.1982ZM40.1088 14.2173C41.7324 14.2173 42.6465 13.3928 43.0108 12.6577H43.0875V14H44.954V7.48011C44.954 4.62287 42.704 4.05398 41.1444 4.05398C39.3674 4.05398 37.731 4.76989 37.0918 6.55966L38.888 6.96875C39.1692 6.27202 39.8851 5.60085 41.1699 5.60085C42.4036 5.60085 43.0364 6.24645 43.0364 7.35866V7.40341C43.0364 8.10014 42.3205 8.08736 40.5563 8.2919C38.6962 8.50923 36.7914 8.99503 36.7914 11.2259C36.7914 13.1562 38.2424 14.2173 40.1088 14.2173ZM40.5243 12.6832C39.4441 12.6832 38.6642 12.1974 38.6642 11.2514C38.6642 10.2287 39.5719 9.86435 40.6777 9.71733C41.2978 9.63423 42.7679 9.46804 43.0428 9.19318V10.4588C43.0428 11.6222 42.1159 12.6832 40.5243 12.6832ZM47.4996 14H49.4109V8.00426C49.4109 6.71946 50.4016 5.79261 51.7567 5.79261C52.1531 5.79261 52.6005 5.86293 52.7539 5.90767V4.07955C52.5621 4.05398 52.185 4.0348 51.9421 4.0348C50.7915 4.0348 49.8072 4.68679 49.4492 5.74148H49.3469V4.18182H47.4996V14ZM57.7317 14.1918C59.5215 14.1918 60.2246 13.0987 60.5698 12.4723H60.7296V14H62.5961V0.909091H60.6848V5.77344H60.5698C60.2246 5.16619 59.5726 4.05398 57.7445 4.05398C55.373 4.05398 53.628 5.92685 53.628 9.11009C53.628 12.2869 55.3475 14.1918 57.7317 14.1918ZM58.1536 12.5618C56.4469 12.5618 55.5584 11.0597 55.5584 9.09091C55.5584 7.14134 56.4277 5.67756 58.1536 5.67756C59.8219 5.67756 60.7168 7.03906 60.7168 9.09091C60.7168 11.1555 59.8027 12.5618 58.1536 12.5618Z" fill="white"/>
</svg>
