<svg width="116" height="36" viewBox="0 0 116 36" fill="none" xmlns="http://www.w3.org/2000/svg">
<path d="M61.8274 14.5433C61.1562 9.69602 57.4276 6.88352 52.5909 6.88352C46.8913 6.88352 42.598 11.0384 42.598 18.0909C42.598 25.1328 46.8381 29.2983 52.5909 29.2983C57.7791 29.2983 61.2202 25.9425 61.8274 21.777L57.843 21.7557C57.3423 24.3125 55.2543 25.7507 52.6442 25.7507C49.1072 25.7507 46.5717 23.098 46.5717 18.0909C46.5717 13.169 49.0859 10.4311 52.6548 10.4311C55.3075 10.4311 57.3849 11.9332 57.843 14.5433H61.8274ZM69.9853 29.3303C72.5527 29.3303 74.0868 28.1264 74.79 26.7521H74.9178V29H78.6252V18.0483C78.6252 13.723 75.0989 12.4233 71.9775 12.4233C68.5364 12.4233 65.8944 13.9574 65.0421 16.9403L68.6429 17.4517C69.0265 16.3331 70.1131 15.3743 71.9988 15.3743C73.7885 15.3743 74.7686 16.2905 74.7686 17.8991V17.9631C74.7686 19.071 73.6074 19.1243 70.7203 19.4332C67.5456 19.7741 64.5094 20.7223 64.5094 24.4084C64.5094 27.6257 66.8638 29.3303 69.9853 29.3303ZM70.9867 26.4964C69.378 26.4964 68.2275 25.7614 68.2275 24.3445C68.2275 22.8636 69.5165 22.2457 71.2424 22.0007C72.2544 21.8622 74.2786 21.6065 74.7793 21.2017V23.13C74.7793 24.9517 73.3091 26.4964 70.9867 26.4964ZM95.4363 16.9616C94.9036 14.1918 92.6877 12.4233 88.8525 12.4233C84.9107 12.4233 82.226 14.3622 82.2367 17.3878C82.226 19.7741 83.6962 21.3509 86.839 22.0007L89.6301 22.5866C91.1323 22.9169 91.8354 23.5241 91.8354 24.451C91.8354 25.5696 90.6209 26.4112 88.7885 26.4112C87.0201 26.4112 85.8695 25.6442 85.5392 24.174L81.7786 24.5362C82.258 27.5405 84.7828 29.3196 88.7992 29.3196C92.8901 29.3196 95.7772 27.1996 95.7878 24.0994C95.7772 21.7663 94.275 20.3388 91.1855 19.6676L88.3944 19.071C86.7324 18.6982 86.0719 18.1229 86.0826 17.1747C86.0719 16.0668 87.2971 15.2997 88.9057 15.2997C90.6848 15.2997 91.6223 16.2692 91.9206 17.3452L95.4363 16.9616ZM102.824 19.4119C102.824 17.0469 104.295 15.6832 106.361 15.6832C108.385 15.6832 109.579 16.9723 109.579 19.1776V29H113.435V18.581C113.435 14.6286 111.198 12.4233 107.8 12.4233C105.285 12.4233 103.687 13.5632 102.931 15.4169H102.739V7.18182H98.9679V29H102.824V19.4119Z" fill="url(#paint0_linear)"/>
<path d="M20.0817 7.18182H16.1506V22.054H15.9588L5.68892 7.18182H2.15199V29H6.1044V14.1385H6.28551L16.5661 29H20.0817V7.18182ZM31.3556 29.3196C36.1497 29.3196 39.1966 25.9425 39.1966 20.8821C39.1966 15.8111 36.1497 12.4233 31.3556 12.4233C26.5616 12.4233 23.5147 15.8111 23.5147 20.8821C23.5147 25.9425 26.5616 29.3196 31.3556 29.3196ZM31.377 26.2301C28.7243 26.2301 27.4245 23.8651 27.4245 20.8714C27.4245 17.8778 28.7243 15.4808 31.377 15.4808C33.987 15.4808 35.2868 17.8778 35.2868 20.8714C35.2868 23.8651 33.987 26.2301 31.377 26.2301Z" fill="white"/>
<defs>
<linearGradient id="paint0_linear" x1="41" y1="18" x2="116" y2="18" gradientUnits="userSpaceOnUse">
<stop stop-color="#DFAF3F"/>
<stop offset="1" stop-color="#E15C5C"/>
</linearGradient>
</defs>
</svg>
